<svg width="63" height="65" viewBox="0 0 63 65" fill="none" xmlns="http://www.w3.org/2000/svg">
<ellipse cx="31.5" cy="32.5" rx="31.5" ry="32.5" fill="#8132E9"/>
<path d="M36.1818 19.8182H43.2898V36.5909C43.2898 38.5852 42.8125 40.3111 41.858 41.7685C40.9119 43.2173 39.5909 44.3381 37.8949 45.1307C36.1989 45.9148 34.2301 46.3068 31.9886 46.3068C29.7301 46.3068 27.7528 45.9148 26.0568 45.1307C24.3608 44.3381 23.0398 43.2173 22.0938 41.7685C21.1562 40.3111 20.6875 38.5852 20.6875 36.5909V19.8182H27.7955V35.9773C27.7955 36.7869 27.9744 37.5114 28.3324 38.1506C28.6903 38.7812 29.1847 39.2756 29.8153 39.6335C30.4545 39.9915 31.179 40.1705 31.9886 40.1705C32.8068 40.1705 33.5313 39.9915 34.1619 39.6335C34.7926 39.2756 35.2869 38.7812 35.6449 38.1506C36.0028 37.5114 36.1818 36.7869 36.1818 35.9773V19.8182Z" fill="white"/>
</svg>
