<svg width="20" height="20" viewBox="0 0 20 20" fill="none" xmlns="http://www.w3.org/2000/svg">
<path d="M10 0C9.20982 0 8.57143 0.558594 8.57143 1.25V2C5.3125 2.57813 2.85714 5.10156 2.85714 8.125V8.85938C2.85714 10.6953 2.08482 12.4687 0.691964 13.8437L0.361607 14.168C-0.0133929 14.5352 -0.102679 15.0625 0.125 15.5117C0.352679 15.9609 0.866071 16.25 1.42857 16.25H18.5714C19.1339 16.25 19.6429 15.9609 19.875 15.5117C20.1071 15.0625 20.0134 14.5352 19.6384 14.168L19.308 13.8437C17.9152 12.4687 17.1429 10.6992 17.1429 8.85938V8.125C17.1429 5.10156 14.6875 2.57813 11.4286 2V1.25C11.4286 0.558594 10.7902 0 10 0ZM12.0223 19.2695C12.558 18.8008 12.8571 18.1641 12.8571 17.5H10H7.14286C7.14286 18.1641 7.44196 18.8008 7.97768 19.2695C8.51339 19.7383 9.24107 20 10 20C10.7589 20 11.4866 19.7383 12.0223 19.2695Z" fill="#7C7C7C"/>
</svg>
